<?xml version="1.0" encoding="UTF-8"?><svg id="Layer_1" xmlns="http://www.w3.org/2000/svg" width="522.63" height="765.48" viewBox="0 0 522.63 765.48"><defs><style>.cls-1{fill:#e72687;}.cls-2{fill:#b6d165;}.cls-3{fill:#dde056;}.cls-4{fill:#172b1a;}.cls-5{fill:#171f14;}.cls-6{fill:#1c4c23;}.cls-7{fill:#1d4a22;}.cls-8{fill:#195427;}.cls-9{fill:#19331c;}.cls-10{fill:#182c1a;}.cls-11{fill:#3e4093;}.cls-12{fill:#1c4e24;}.cls-13{fill:#1c3f1e;}.cls-14{fill:#1b371d;}.cls-15{fill:#54c3e9;}.cls-16{fill:#2da337;}.cls-17{fill:#5b5758;stroke:#696966;stroke-miterlimit:10;}</style></defs><g id="Layer_1-2"><path class="cls-16" d="m522.5,0H-.25v765.48h297.67c4.24-.75,8.48-.76,12.63,0h1.71c.27-.04.55-.07.84-.06.99,0,1.99.04,2.97.06h206.91v-146.3c-.06-2.92-.12-5.84-.16-8.76-1-8-1.87-16.12-.15-23.64v-6.6c0-.68.12-1.27.31-1.81V0h.02Z"/><rect class="cls-5" x="31.32" y="76.49" width="15.38" height="40.52"/><path class="cls-8" d="m39.03,31s.86,9.41-10.95,14.01c-11.81,4.6-16.01-3.5-16.01-3.5,2.99,8.77,10.97,11.77,18.42,8.87s11.52-10.6,8.54-19.38Z"/><path class="cls-14" d="m39.01,23.31s5.53,15.9-11.9,28.38c-17.43,12.48-27.89.12-27.89.12,8.75,13.99,23.22,16.09,34.21,8.22,10.99-7.87,14.34-22.73,5.59-36.72Z"/><path class="cls-13" d="m40.2,12.7s3.09,12.96-10.52,20.26c-13.61,7.3-20.56-3.6-20.56-3.6,5.58,11.92,16.11,15.45,24.69,10.85s11.96-15.59,6.38-27.5h0Z"/><path class="cls-6" d="m39.79,11.86s2.31,7.57-6.14,13.12c-8.45,5.55-13.16-.45-13.16-.45,3.86,6.73,10.64,7.98,15.97,4.48,5.33-3.5,7.19-10.42,3.32-17.16h.01Z"/><path class="cls-9" d="m41.4,41.59s5.19,16.28-14.53,30.4c-19.72,14.12-30.48,1.84-30.48,1.84,8.81,14.08,24.5,15.39,36.94,6.49,12.44-8.9,16.9-24.64,8.09-38.72h-.01Z"/><path class="cls-13" d="m40.35,36.16s6.01,15.68-8.98,26.42c-15,10.74-25.25-1.91-25.25-1.91,8.81,14.08,22.04,17.15,31.5,10.38s11.55-20.81,2.74-34.89Z"/><path class="cls-12" d="m40.73,63.42s1.56,13.26-16.28,21.33c-17.84,8.07-24.45-2.91-24.45-2.91,4.78,12.08,17,15.31,28.26,10.23,11.24-5.09,17.25-16.56,12.48-28.65Z"/><path class="cls-13" d="m32.38,56.73s11.46,14.23-1.52,32.81-28.11,9.61-28.11,9.61c14.01,11.19,29.39,8.4,37.57-3.31s6.07-27.91-7.94-39.11Z"/><path class="cls-13" d="m71.4,63.35s-11.72,8.63-25.91-4.98c-14.18-13.61-6.47-26.09-6.47-26.09-9.43,11.23-7.84,25.23,1.1,33.81,8.94,8.58,21.85,8.49,31.28-2.74Z"/><path class="cls-7" d="m77.02,76.85s-13.96,8.52-30.65-9.53c-16.68-18.05-7.44-31.67-7.44-31.67-11.26,11.91-9.51,28.64,1.01,40.02s25.82,13.1,37.08,1.19h0Z"/><path class="cls-4" d="m72.75,42.23s-7.81,8.66-21.22.37c-13.42-8.29-9.41-19.29-9.41-19.29-5.57,10.31-2.01,20.97,6.44,26.19,8.46,5.23,18.61,3.04,24.18-7.27Z"/><path class="cls-13" d="m65.25,33.36s-5.94,6.72-15.82.62c-9.89-6.11-6.74-14.56-6.74-14.56-4.3,7.95-1.79,16.02,4.44,19.87s13.82,2.02,18.12-5.93Z"/><path class="cls-13" d="m65.52,58.44s-6.44,3.83-15.65-5.49-5.36-15.79-5.36-15.79c-4.94,5.57-3.18,13.85,2.62,19.73,5.8,5.87,13.45,7.12,18.38,1.55h.01Z"/><path class="cls-10" d="m60.98,25.1s-4.84,4.9-13.6-.73c-8.76-5.62-6.41-12.11-6.41-12.11-3.36,6-.87,12.62,4.66,16.17s11.99,2.67,15.36-3.33Z"/><path class="cls-13" d="m68.81,101.14s-15.83,3.78-25.34-17c-9.51-20.78,3.63-30.43,3.63-30.43-14.45,7.56-18.39,23.04-12.4,36.14,5.99,13.1,19.65,18.86,34.11,11.3h0Z"/><path class="cls-14" d="m70.74,84.65s-9,9.04-22.36-.46c-13.36-9.51-8.14-21.24-8.14-21.24-6.8,10.92-4.01,22.59,4.41,28.58s19.3,4.04,26.1-6.88Z"/><path class="cls-13" d="m52.91,17.88s-4.95,4.82-9.5.89c-4.56-3.92-.89-9.85-.89-9.85-4.24,5.62-4.47,11.11-1.6,13.59,2.87,2.47,7.76.99,11.98-4.63Z"/><path class="cls-13" d="m40.08,10.33s.86,6.18-4.33,7.97-7.51-3.88-7.51-3.88c1.81,5.98,5.61,8.73,8.88,7.61,3.27-1.13,4.76-5.7,2.95-11.69h0Z"/><path class="cls-13" d="m40.32,7.49s1.04,2.88-2.39,5.57-5.46.59-5.46.59c1.69,2.45,4.51,2.55,6.67.85s2.85-4.56,1.17-7.01Z"/><path class="cls-13" d="m41.65,8.61s-1.04,2.88,2.39,5.57c3.43,2.7,5.46.59,5.46.59-1.69,2.45-4.51,2.55-6.67.85s-2.85-4.56-1.17-7.01Z"/><rect class="cls-5" x="292.43" y="70.97" width="15.38" height="40.52"/><path class="cls-8" d="m300.14,25.48s.86,9.41-10.95,14.01-16.01-3.5-16.01-3.5c2.99,8.77,10.97,11.77,18.42,8.87s11.52-10.6,8.54-19.38Z"/><path class="cls-14" d="m300.12,17.79s5.53,15.9-11.9,28.38c-17.43,12.48-27.89.12-27.89.12,8.75,13.99,23.22,16.09,34.21,8.22,10.99-7.87,14.34-22.73,5.59-36.72Z"/><path class="cls-13" d="m301.31,7.17s3.09,12.96-10.52,20.26c-13.61,7.3-20.56-3.6-20.56-3.6,5.58,11.92,16.11,15.45,24.69,10.85,8.58-4.6,11.96-15.59,6.38-27.5h0Z"/><path class="cls-6" d="m300.9,6.34s2.31,7.57-6.14,13.12c-8.45,5.55-13.16-.45-13.16-.45,3.86,6.73,10.64,7.98,15.97,4.48s7.19-10.42,3.32-17.16h.01Z"/><path class="cls-9" d="m302.52,36.07s5.19,16.28-14.53,30.4c-19.72,14.12-30.48,1.84-30.48,1.84,8.81,14.08,24.5,15.39,36.94,6.49,12.44-8.9,16.9-24.64,8.09-38.72h-.01Z"/><path class="cls-13" d="m301.46,30.64s6.01,15.68-8.98,26.42c-15,10.74-25.25-1.91-25.25-1.91,8.81,14.08,22.04,17.15,31.5,10.38,9.46-6.77,11.55-20.81,2.74-34.89Z"/><path class="cls-12" d="m301.84,57.9s1.56,13.26-16.28,21.33c-17.84,8.07-24.45-2.91-24.45-2.91,4.78,12.08,17,15.31,28.26,10.23,11.24-5.09,17.25-16.56,12.48-28.65Z"/><path class="cls-13" d="m293.48,51.2s11.46,14.23-1.52,32.81c-12.98,18.58-28.11,9.61-28.11,9.61,14.01,11.19,29.39,8.4,37.57-3.31s6.07-27.91-7.94-39.11h0Z"/><path class="cls-13" d="m332.51,57.83s-11.72,8.63-25.91-4.98c-14.18-13.61-6.47-26.09-6.47-26.09-9.43,11.23-7.84,25.23,1.1,33.81,8.94,8.58,21.85,8.49,31.28-2.74Z"/><path class="cls-7" d="m338.13,71.33s-13.96,8.52-30.65-9.53c-16.68-18.05-7.44-31.67-7.44-31.67-11.26,11.91-9.51,28.64,1.01,40.02,10.52,11.38,25.82,13.1,37.08,1.19h0Z"/><path class="cls-4" d="m333.86,36.71s-7.81,8.66-21.22.37c-13.42-8.29-9.41-19.29-9.41-19.29-5.57,10.31-2.01,20.97,6.44,26.19,8.46,5.23,18.61,3.04,24.18-7.27h0Z"/><path class="cls-13" d="m326.37,27.83s-5.94,6.72-15.82.62c-9.89-6.11-6.74-14.56-6.74-14.56-4.3,7.95-1.79,16.02,4.44,19.87s13.82,2.02,18.12-5.93Z"/><path class="cls-13" d="m326.64,52.92s-6.44,3.83-15.65-5.49c-9.2-9.32-5.36-15.79-5.36-15.79-4.94,5.57-3.18,13.85,2.62,19.73s13.45,7.12,18.38,1.55h.01Z"/><path class="cls-10" d="m322.09,19.58s-4.84,4.9-13.6-.73c-8.76-5.62-6.41-12.11-6.41-12.11-3.36,6-.87,12.62,4.66,16.17s11.99,2.67,15.36-3.33Z"/><path class="cls-13" d="m329.92,95.61s-15.83,3.78-25.34-17c-9.51-20.78,3.63-30.43,3.63-30.43-14.45,7.56-18.39,23.04-12.4,36.14,5.99,13.1,19.65,18.86,34.11,11.3h0Z"/><path class="cls-14" d="m331.86,79.12s-9,9.04-22.36-.46c-13.36-9.51-8.14-21.24-8.14-21.24-6.8,10.92-4.01,22.59,4.41,28.58,8.42,5.99,19.3,4.04,26.1-6.88h0Z"/><path class="cls-13" d="m314.01,12.36s-4.95,4.82-9.5.89c-4.56-3.92-.89-9.85-.89-9.85-4.24,5.62-4.47,11.11-1.6,13.59,2.87,2.47,7.76.99,11.98-4.63Z"/><path class="cls-13" d="m301.19,4.8s.86,6.18-4.33,7.97-7.51-3.88-7.51-3.88c1.81,5.98,5.61,8.73,8.88,7.61,3.27-1.13,4.76-5.7,2.95-11.69h0Z"/><path class="cls-13" d="m301.43,1.97s1.04,2.88-2.39,5.57c-3.43,2.7-5.46.59-5.46.59,1.69,2.45,4.51,2.55,6.67.85s2.85-4.56,1.17-7.01Z"/><path class="cls-13" d="m302.75,3.09s-1.04,2.88,2.39,5.57c3.43,2.7,5.46.59,5.46.59-1.69,2.45-4.51,2.55-6.67.85s-2.85-4.56-1.17-7.01Z"/><rect class="cls-5" x="48.74" y="286.95" width="15.38" height="40.52"/><path class="cls-8" d="m56.45,241.46s.86,9.41-10.95,14.01c-11.81,4.6-16.01-3.5-16.01-3.5,2.99,8.77,10.97,11.77,18.42,8.87s11.52-10.6,8.54-19.38h0Z"/><path class="cls-14" d="m56.43,233.77s5.53,15.9-11.9,28.38c-17.43,12.48-27.89.12-27.89.12,8.75,13.99,23.22,16.09,34.21,8.22s14.34-22.73,5.59-36.72h0Z"/><path class="cls-13" d="m57.62,223.16s3.09,12.96-10.52,20.26c-13.61,7.3-20.56-3.6-20.56-3.6,5.58,11.92,16.11,15.45,24.69,10.85,8.58-4.6,11.96-15.59,6.38-27.5h0Z"/><path class="cls-6" d="m57.21,222.32s2.31,7.57-6.14,13.12c-8.45,5.55-13.16-.45-13.16-.45,3.86,6.73,10.64,7.98,15.97,4.48s7.19-10.42,3.32-17.16h.01Z"/><path class="cls-9" d="m58.83,252.05s5.19,16.28-14.53,30.4c-19.72,14.12-30.48,1.84-30.48,1.84,8.81,14.08,24.5,15.39,36.94,6.49s16.9-24.64,8.09-38.72h-.01Z"/><path class="cls-13" d="m57.78,246.62s6.01,15.68-8.98,26.42c-15,10.74-25.25-1.91-25.25-1.91,8.81,14.08,22.04,17.15,31.5,10.38,9.46-6.77,11.55-20.81,2.74-34.89h0Z"/><path class="cls-12" d="m58.16,273.88s1.56,13.26-16.28,21.33c-17.84,8.07-24.45-2.91-24.45-2.91,4.78,12.08,17,15.31,28.26,10.23,11.24-5.09,17.25-16.56,12.48-28.65Z"/><path class="cls-13" d="m49.81,267.19s11.46,14.23-1.52,32.81c-12.98,18.58-28.11,9.61-28.11,9.61,14.01,11.19,29.39,8.4,37.57-3.31s6.07-27.91-7.94-39.11Z"/><path class="cls-13" d="m88.82,273.81s-11.72,8.63-25.91-4.98c-14.18-13.61-6.47-26.09-6.47-26.09-9.43,11.23-7.84,25.23,1.1,33.81s21.85,8.49,31.28-2.74Z"/><path class="cls-7" d="m94.44,287.31s-13.96,8.52-30.65-9.53c-16.68-18.05-7.44-31.67-7.44-31.67-11.26,11.91-9.51,28.64,1.01,40.02,10.52,11.38,25.82,13.1,37.08,1.19h0Z"/><path class="cls-4" d="m90.18,252.69s-7.81,8.66-21.22.37c-13.42-8.29-9.41-19.29-9.41-19.29-5.57,10.31-2.01,20.97,6.44,26.19,8.46,5.23,18.61,3.04,24.18-7.27h0Z"/><path class="cls-13" d="m82.68,243.82s-5.94,6.72-15.82.62c-9.89-6.11-6.74-14.56-6.74-14.56-4.3,7.95-1.79,16.02,4.44,19.87s13.82,2.02,18.12-5.93Z"/><path class="cls-13" d="m82.95,268.9s-6.44,3.83-15.65-5.49c-9.2-9.32-5.36-15.79-5.36-15.79-4.94,5.57-3.18,13.85,2.62,19.73s13.45,7.12,18.38,1.55h.01Z"/><path class="cls-10" d="m78.4,235.56s-4.84,4.9-13.6-.73c-8.76-5.62-6.41-12.11-6.41-12.11-3.36,6-.87,12.62,4.66,16.17s11.99,2.67,15.36-3.33Z"/><path class="cls-13" d="m86.23,311.6s-15.83,3.78-25.34-17c-9.51-20.78,3.63-30.43,3.63-30.43-14.45,7.56-18.39,23.04-12.4,36.14,5.99,13.1,19.65,18.86,34.11,11.3h0Z"/><path class="cls-14" d="m88.17,295.11s-9,9.04-22.36-.46c-13.36-9.51-8.14-21.24-8.14-21.24-6.8,10.92-4.01,22.59,4.41,28.58s19.3,4.04,26.1-6.88Z"/><path class="cls-13" d="m70.33,228.34s-4.95,4.82-9.5.89c-4.56-3.92-.89-9.85-.89-9.85-4.24,5.62-4.47,11.11-1.6,13.59,2.87,2.47,7.76.99,11.98-4.63h0Z"/><path class="cls-13" d="m57.5,220.79s.86,6.18-4.33,7.97-7.51-3.88-7.51-3.88c1.81,5.98,5.61,8.73,8.88,7.61,3.27-1.13,4.76-5.7,2.95-11.69h0Z"/><path class="cls-13" d="m57.75,217.95s1.04,2.88-2.39,5.57c-3.43,2.7-5.46.59-5.46.59,1.69,2.45,4.51,2.55,6.67.85s2.85-4.56,1.17-7.01h0Z"/><path class="cls-13" d="m59.06,219.07s-1.04,2.88,2.39,5.57c3.43,2.7,5.46.59,5.46.59-1.69,2.45-4.51,2.55-6.67.85s-2.85-4.56-1.17-7.01h0Z"/><rect class="cls-5" x="37.3" y="663.33" width="17.28" height="52.46"/><path class="cls-8" d="m45.96,604.44s.96,12.18-12.31,18.14c-13.27,5.96-18-4.54-18-4.54,3.36,11.36,12.34,15.24,20.71,11.49,8.37-3.75,12.96-13.73,9.6-25.09Z"/><path class="cls-14" d="m45.94,594.48s6.21,20.58-13.38,36.75c-19.59,16.16-31.36.15-31.36.15,9.84,18.11,26.1,20.83,38.45,10.64s16.13-29.43,6.28-47.54h0Z"/><path class="cls-13" d="m47.29,580.73s3.47,16.78-11.82,26.23c-15.3,9.45-23.1-4.66-23.1-4.66,6.27,15.43,18.11,20,27.74,14.05,9.65-5.96,13.45-20.18,7.18-35.61h0Z"/><path class="cls-6" d="m46.82,579.65s2.6,9.8-6.91,16.99-14.79-.58-14.79-.58c4.35,8.71,11.96,10.33,17.96,5.8,5.99-4.53,8.08-13.5,3.73-22.21h0Z"/><path class="cls-9" d="m48.64,618.15s5.83,21.07-16.34,39.36c-22.16,18.28-34.27,2.38-34.27,2.38,9.91,18.23,27.54,19.93,41.51,8.4,13.97-11.53,18.99-31.91,9.08-50.14h.01Z"/><path class="cls-13" d="m47.46,611.11s6.76,20.31-10.1,34.21c-16.85,13.9-28.39-2.47-28.39-2.47,9.91,18.23,24.77,22.21,35.4,13.44,10.63-8.76,12.98-26.95,3.08-45.18h0Z"/><path class="cls-12" d="m47.88,646.41s1.76,17.17-18.3,27.61c-20.05,10.45-27.48-3.76-27.48-3.76,5.37,15.64,19.11,19.83,31.76,13.24,12.64-6.59,19.39-21.45,14.02-37.09h0Z"/><path class="cls-13" d="m38.49,637.74s12.88,18.42-1.71,42.48c-14.59,24.06-31.6,12.44-31.6,12.44,15.75,14.49,33.02,10.88,42.23-4.28,9.2-15.16,6.83-36.14-8.91-50.64h-.01Z"/><path class="cls-13" d="m82.35,646.32s-13.18,11.17-29.12-6.45c-15.94-17.62-7.28-33.78-7.28-33.78-10.59,14.54-8.81,32.67,1.23,43.78,10.05,11.11,24.56,11,35.15-3.55h.01Z"/><path class="cls-7" d="m88.67,663.8s-15.7,11.03-34.45-12.34c-18.75-23.37-8.36-41.01-8.36-41.01-12.67,15.42-10.69,37.08,1.13,51.82,11.82,14.73,29.02,16.96,41.68,1.54h0Z"/><path class="cls-4" d="m83.87,618.98s-8.77,11.21-23.86.47c-15.08-10.73-10.57-24.97-10.57-24.97-6.26,13.35-2.26,27.15,7.25,33.91,9.51,6.77,20.92,3.94,27.17-9.41h.01Z"/><path class="cls-13" d="m75.44,607.49s-6.67,8.71-17.79.8c-11.11-7.91-7.58-18.85-7.58-18.85-4.83,10.29-2.01,20.74,4.99,25.72s15.54,2.62,20.37-7.67h.01Z"/><path class="cls-13" d="m75.75,639.96s-7.25,4.96-17.59-7.11c-10.34-12.07-6.02-20.44-6.02-20.44-5.54,7.21-3.57,17.93,2.95,25.54,6.51,7.61,15.12,9.22,20.66,2h0Z"/><path class="cls-10" d="m70.64,596.8s-5.43,6.34-15.29-.94-7.21-15.68-7.21-15.68c-3.78,7.77-.98,16.34,5.23,20.93s13.48,3.46,17.26-4.31Z"/><path class="cls-13" d="m79.45,695.24s-17.8,4.89-28.49-22.01c-10.69-26.9,4.09-39.41,4.09-39.41-16.24,9.79-20.67,29.83-13.93,46.79,6.74,16.96,22.09,24.43,38.33,14.63Z"/><path class="cls-14" d="m81.61,673.89s-10.12,11.71-25.13-.6-9.14-27.5-9.14-27.5c-7.64,14.14-4.52,29.25,4.95,37.01s21.69,5.23,29.33-8.91h0Z"/><path class="cls-13" d="m61.56,587.45s-5.56,6.24-10.68,1.16-1-12.76-1-12.76c-4.76,7.27-5.02,14.39-1.8,17.59s8.72,1.28,13.48-5.99Z"/><path class="cls-13" d="m47.15,577.67s.97,8-4.86,10.32c-5.82,2.32-8.44-5.03-8.44-5.03,2.03,7.75,6.31,11.31,9.98,9.85,3.67-1.46,5.35-7.39,3.31-15.13h.01Z"/><path class="cls-13" d="m47.43,573.99s1.17,3.72-2.69,7.22c-3.86,3.49-6.13.76-6.13.76,1.89,3.17,5.07,3.31,7.5,1.11,2.44-2.2,3.21-5.91,1.31-9.08h.01Z"/><path class="cls-13" d="m48.9,575.45s-1.17,3.72,2.69,7.22c3.86,3.49,6.13.76,6.13.76-1.89,3.17-5.07,3.31-7.5,1.11-2.44-2.2-3.21-5.91-1.31-9.08h-.01Z"/><rect class="cls-5" x="458.93" y="128.73" width="16.96" height="43.37"/><path class="cls-8" d="m467.43,80.04s.95,10.07-12.07,14.99-17.67-3.75-17.67-3.75c3.29,9.39,12.11,12.6,20.32,9.5s12.72-11.35,9.43-20.74Z"/><path class="cls-14" d="m467.41,71.81s6.1,17.02-13.13,30.38c-19.23,13.36-30.77.13-30.77.13,9.66,14.97,25.62,17.22,37.74,8.8,12.13-8.42,15.83-24.33,6.17-39.3h-.01Z"/><path class="cls-13" d="m468.74,60.45s3.41,13.87-11.6,21.68c-15.02,7.81-22.67-3.85-22.67-3.85,6.16,12.76,17.77,16.53,27.23,11.61s13.2-16.69,7.05-29.44Z"/><path class="cls-6" d="m468.28,59.55s2.55,8.1-6.78,14.05c-9.32,5.94-14.51-.48-14.51-.48,4.27,7.2,11.74,8.54,17.63,4.79s7.93-11.16,3.67-18.36h-.01Z"/><path class="cls-9" d="m470.06,91.38s5.72,17.42-16.03,32.54c-21.75,15.11-33.64,1.97-33.64,1.97,9.73,15.07,27.03,16.47,40.74,6.94,13.71-9.53,18.64-26.38,8.92-41.45Z"/><path class="cls-13" d="m468.9,85.56s6.63,16.79-9.91,28.28c-16.54,11.49-27.85-2.04-27.85-2.04,9.73,15.07,24.32,18.36,34.75,11.11,10.43-7.25,12.75-22.28,3.02-37.35h-.01Z"/><path class="cls-12" d="m469.32,114.74s1.72,14.19-17.96,22.83c-19.68,8.64-26.97-3.11-26.97-3.11,5.27,12.93,18.76,16.39,31.17,10.95s19.03-17.73,13.76-30.66h0Z"/><path class="cls-13" d="m460.1,107.57s12.65,15.23-1.68,35.12c-14.32,19.89-31.02,10.29-31.02,10.29,15.46,11.98,32.41,9,41.44-3.54,9.02-12.54,6.7-29.88-8.75-41.86h0Z"/><path class="cls-13" d="m503.14,114.67s-12.93,9.24-28.58-5.33-7.14-27.93-7.14-27.93c-10.4,12.02-8.64,27.01,1.21,36.19,9.87,9.18,24.1,9.09,34.5-2.93Z"/><path class="cls-7" d="m509.35,129.12s-15.41,9.12-33.82-10.2c-18.41-19.32-8.21-33.9-8.21-33.9-12.43,12.75-10.49,30.66,1.11,42.84,11.6,12.18,28.48,14.02,40.9,1.27h.01Z"/><path class="cls-4" d="m504.64,92.06s-8.61,9.26-23.42.39c-14.8-8.87-10.37-20.65-10.37-20.65-6.14,11.04-2.22,22.44,7.12,28.04,9.32,5.59,20.53,3.25,26.67-7.78h0Z"/><path class="cls-13" d="m496.37,82.56s-6.55,7.2-17.46.66c-10.9-6.54-7.44-15.58-7.44-15.58-4.74,8.51-1.98,17.14,4.9,21.26s15.25,2.16,19.98-6.34h.01Z"/><path class="cls-13" d="m496.67,109.41s-7.12,4.1-17.26-5.87c-10.15-9.97-5.91-16.9-5.91-16.9-5.44,5.96-3.5,14.83,2.89,21.11,6.39,6.29,14.84,7.62,20.28,1.66h.01Z"/><path class="cls-10" d="m491.65,73.72s-5.33,5.24-15.01-.78c-9.67-6.02-7.08-12.97-7.08-12.97-3.71,6.42-.96,13.51,5.14,17.3s13.23,2.86,16.94-3.56h0Z"/><path class="cls-13" d="m500.29,155.11s-17.47,4.04-27.95-18.2c-10.49-22.24,4-32.58,4-32.58-15.94,8.1-20.29,24.66-13.67,38.68s21.68,20.19,37.62,12.1h0Z"/><path class="cls-14" d="m502.42,137.46s-9.93,9.68-24.66-.49c-14.73-10.17-8.97-22.73-8.97-22.73-7.5,11.69-4.44,24.18,4.86,30.6,9.29,6.41,21.29,4.32,28.79-7.37h-.01Z"/><path class="cls-13" d="m482.75,66s-5.46,5.16-10.48.96c-5.02-4.2-.98-10.55-.98-10.55-4.67,6.01-4.93,11.9-1.76,14.55,3.16,2.65,8.55,1.06,13.23-4.96h-.01Z"/><path class="cls-13" d="m468.6,57.91s.95,6.61-4.77,8.53-8.28-4.16-8.28-4.16c1.99,6.4,6.19,9.35,9.8,8.14s5.25-6.11,3.25-12.51Z"/><path class="cls-13" d="m468.87,54.87s1.15,3.08-2.64,5.97c-3.79,2.89-6.02.63-6.02.63,1.86,2.62,4.97,2.73,7.37.91s3.15-4.88,1.29-7.51Z"/><path class="cls-13" d="m470.32,56.08s-1.15,3.08,2.64,5.97,6.02.63,6.02.63c-1.86,2.62-4.97,2.73-7.37.91s-3.15-4.88-1.29-7.51Z"/><rect class="cls-5" x="381.76" y="66.69" width="9.01" height="24.17"/><path class="cls-8" d="m386.29,39.56s.5,5.61-6.42,8.35-9.38-2.09-9.38-2.09c1.76,5.23,6.43,7.02,10.8,5.29s6.76-6.32,5.01-11.56h0Z"/><path class="cls-14" d="m386.28,34.97s3.24,9.48-6.98,16.93c-10.22,7.45-16.36.07-16.36.07,5.13,8.34,13.61,9.6,20.05,4.9,6.44-4.69,8.41-13.56,3.28-21.9Z"/><path class="cls-13" d="m386.98,28.64s1.82,7.73-6.16,12.08c-7.98,4.35-12.05-2.15-12.05-2.15,3.27,7.11,9.45,9.21,14.47,6.47,5.03-2.74,7.02-9.3,3.74-16.4Z"/><path class="cls-6" d="m386.73,28.14s1.36,4.52-3.6,7.83-7.71-.27-7.71-.27c2.27,4.01,6.24,4.76,9.36,2.67s4.22-6.22,1.95-10.23Z"/><path class="cls-9" d="m387.68,45.87s3.04,9.71-8.52,18.13c-11.56,8.42-17.88,1.1-17.88,1.1,5.17,8.4,14.36,9.18,21.66,3.87s9.91-14.7,4.74-23.09h0Z"/><path class="cls-13" d="m387.06,42.63s3.52,9.35-5.27,15.76c-8.79,6.4-14.81-1.14-14.81-1.14,5.17,8.4,12.93,10.23,18.47,6.19s6.78-12.41,1.61-20.81Z"/><path class="cls-12" d="m387.28,58.89s.91,7.91-9.55,12.72-14.33-1.73-14.33-1.73c2.8,7.21,9.97,9.13,16.56,6.1s10.12-9.88,7.32-17.09Z"/><path class="cls-13" d="m382.38,54.9s6.72,8.49-.89,19.57c-7.61,11.08-16.48,5.73-16.48,5.73,8.21,6.68,17.22,5.01,22.02-1.97,4.8-6.98,3.56-16.65-4.65-23.32h0Z"/><path class="cls-13" d="m405.27,58.85s-6.88,5.15-15.19-2.97c-8.31-8.12-3.79-15.56-3.79-15.56-5.53,6.7-4.6,15.05.64,20.17,5.24,5.12,12.81,5.07,18.34-1.63h0Z"/><path class="cls-7" d="m408.56,66.9s-8.19,5.08-17.97-5.68c-9.79-10.77-4.37-18.89-4.37-18.89-6.6,7.11-5.57,17.08.59,23.87,6.16,6.79,15.14,7.81,21.74.71h0Z"/><path class="cls-4" d="m406.06,46.25s-4.58,5.16-12.45.22-5.51-11.5-5.51-11.5c-3.26,6.15-1.17,12.51,3.78,15.62s10.91,1.81,14.17-4.34Z"/><path class="cls-13" d="m401.67,40.96s-3.48,4.01-9.27.37-3.95-8.68-3.95-8.68c-2.52,4.74-1.04,9.55,2.6,11.85s8.11,1.21,10.62-3.54h.01Z"/><path class="cls-13" d="m401.83,55.92s-3.78,2.28-9.17-3.27c-5.39-5.56-3.14-9.41-3.14-9.41-2.89,3.32-1.87,8.26,1.54,11.77s7.89,4.25,10.78.92h0Z"/><path class="cls-10" d="m399.16,36.04s-2.83,2.92-7.97-.43-3.76-7.22-3.76-7.22c-1.98,3.58-.51,7.53,2.73,9.64s7.03,1.6,9-1.98h0Z"/><path class="cls-13" d="m403.75,81.39s-9.28,2.25-14.86-10.14c-5.57-12.39,2.13-18.15,2.13-18.15-8.47,4.51-10.78,13.74-7.27,21.55,3.51,7.81,11.52,11.25,19.99,6.74h0Z"/><path class="cls-14" d="m404.88,71.55s-5.28,5.39-13.11-.28c-7.83-5.67-4.77-12.67-4.77-12.67-3.98,6.51-2.36,13.47,2.58,17.05,4.94,3.57,11.31,2.41,15.3-4.11h0Z"/><path class="cls-13" d="m394.42,31.73s-2.9,2.87-5.57.53c-2.67-2.34-.52-5.88-.52-5.88-2.48,3.35-2.62,6.63-.93,8.1s4.55.59,7.03-2.76h0Z"/><path class="cls-13" d="m386.9,27.23s.5,3.69-2.53,4.75c-3.03,1.06-4.41-2.32-4.41-2.32,1.05,3.57,3.29,5.21,5.21,4.54s2.79-3.4,1.73-6.97Z"/><path class="cls-13" d="m387.05,25.53s.61,1.72-1.41,3.32c-2.02,1.61-3.2.35-3.2.35.98,1.46,2.64,1.52,3.91.51s1.68-2.72.69-4.18Z"/><path class="cls-13" d="m387.82,26.2s-.61,1.72,1.41,3.32,3.2.35,3.2.35c-.98,1.46-2.64,1.52-3.91.51s-1.68-2.72-.69-4.18Z"/><rect class="cls-5" x="116.17" y="257.75" width="13.18" height="28.8"/><path class="cls-8" d="m122.79,225.42s.74,6.69-9.38,9.96c-10.12,3.27-13.72-2.49-13.72-2.49,2.56,6.24,9.41,8.37,15.79,6.31,6.38-2.06,9.88-7.54,7.32-13.77h0Z"/><path class="cls-14" d="m122.77,219.95s4.74,11.3-10.21,20.17-23.91.08-23.91.08c7.51,9.94,19.9,11.44,29.32,5.84,9.43-5.59,12.3-16.16,4.8-26.1h0Z"/><path class="cls-13" d="m123.79,212.41s2.65,9.21-9.01,14.4c-11.66,5.19-17.62-2.56-17.62-2.56,4.79,8.47,13.8,10.98,21.16,7.71,7.36-3.27,10.26-11.08,5.47-19.55Z"/><path class="cls-6" d="m123.44,211.82s1.98,5.38-5.27,9.33-11.27-.32-11.27-.32c3.31,4.78,9.12,5.67,13.69,3.18s6.16-7.41,2.85-12.19h0Z"/><path class="cls-9" d="m124.83,232.95s4.45,11.57-12.46,21.6c-16.9,10.04-26.13,1.31-26.13,1.31,7.56,10.01,21,10.94,31.66,4.61s14.48-17.51,6.93-27.52Z"/><path class="cls-13" d="m123.92,229.08s5.16,11.15-7.7,18.78-21.64-1.36-21.64-1.36c7.56,10.01,18.89,12.19,27,7.38,8.1-4.81,9.9-14.79,2.35-24.8h-.01Z"/><path class="cls-12" d="m124.24,248.46s1.33,9.42-13.95,15.16-20.95-2.07-20.95-2.07c4.1,8.59,14.57,10.88,24.21,7.27,9.64-3.62,14.79-11.77,10.69-20.36h0Z"/><path class="cls-13" d="m117.09,243.7s9.83,10.11-1.3,23.32c-11.12,13.21-24.09,6.83-24.09,6.83,12,7.96,25.18,5.97,32.2-2.35,7.02-8.33,5.21-19.84-6.81-27.8h0Z"/><path class="cls-13" d="m150.53,248.41s-10.05,6.13-22.2-3.54c-12.16-9.67-5.55-18.54-5.55-18.54-8.08,7.98-6.72,17.93.94,24.03,7.66,6.1,18.73,6.04,26.8-1.95h.01Z"/><path class="cls-7" d="m155.35,258.01s-11.97,6.05-26.27-6.77c-14.3-12.83-6.37-22.51-6.37-22.51-9.66,8.47-8.15,20.36.86,28.44,9.01,8.09,22.12,9.31,31.78.84Z"/><path class="cls-4" d="m151.69,233.4s-6.69,6.15-18.19.26c-11.5-5.89-8.06-13.71-8.06-13.71-4.77,7.33-1.72,14.9,5.53,18.62,7.25,3.72,15.95,2.16,20.72-5.17h0Z"/><path class="cls-13" d="m145.26,227.09s-5.09,4.78-13.56.44-5.77-10.35-5.77-10.35c-3.68,5.65-1.54,11.38,3.8,14.12s11.85,1.44,15.53-4.21h0Z"/><path class="cls-13" d="m145.5,244.92s-5.53,2.72-13.41-3.9c-7.89-6.62-4.59-11.22-4.59-11.22-4.23,3.96-2.72,9.85,2.25,14.02,4.97,4.18,11.52,5.06,15.76,1.1h-.01Z"/><path class="cls-10" d="m141.6,221.23s-4.15,3.48-11.65-.52c-7.52-4-5.5-8.61-5.5-8.61-2.88,4.26-.74,8.97,3.99,11.49s10.28,1.9,13.16-2.36Z"/><path class="cls-13" d="m148.31,275.27s-13.57,2.68-21.72-12.08c-8.15-14.77,3.11-21.63,3.11-21.63-12.39,5.38-15.76,16.37-10.62,25.68,5.14,9.31,16.84,13.41,29.23,8.03Z"/><path class="cls-14" d="m149.97,263.55s-7.71,6.43-19.16-.33c-11.45-6.76-6.98-15.09-6.98-15.09-5.82,7.76-3.44,16.06,3.77,20.32,7.22,4.26,16.54,2.87,22.36-4.89h0Z"/><path class="cls-13" d="m134.68,216.09s-4.24,3.42-8.14.64c-3.9-2.79-.76-7-.76-7-3.62,3.99-3.82,7.9-1.37,9.66s6.64.7,10.28-3.29h-.01Z"/><path class="cls-13" d="m123.68,210.72s.74,4.39-3.7,5.66-6.43-2.76-6.43-2.76c1.55,4.25,4.81,6.21,7.61,5.41s4.08-4.05,2.53-8.31h0Z"/><path class="cls-13" d="m123.9,208.71s.89,2.04-2.05,3.96c-2.95,1.92-4.68.42-4.68.42,1.45,1.74,3.86,1.82,5.72.61s2.45-3.24,1-4.99Z"/><path class="cls-13" d="m125.03,209.51s-.89,2.04,2.05,3.96,4.68.42,4.68.42c-1.45,1.74-3.86,1.82-5.72.61s-2.45-3.24-1-4.99Z"/><rect class="cls-5" x="481.84" y="536.39" width="16.68" height="31.23"/><path class="cls-8" d="m490.19,501.33s.93,7.25-11.87,10.8c-12.81,3.55-17.36-2.7-17.36-2.7,3.24,6.76,11.9,9.08,19.97,6.84s12.51-8.17,9.26-14.94h0Z"/><path class="cls-14" d="m490.17,495.4s6,12.25-12.92,21.88c-18.91,9.62-30.26.09-30.26.09,9.5,10.78,25.18,12.4,37.11,6.34,11.92-6.07,15.56-17.52,6.06-28.3h.01Z"/><path class="cls-13" d="m491.47,487.22s3.35,9.99-11.41,15.61-22.29-2.77-22.29-2.77c6.06,9.19,17.48,11.91,26.78,8.36,9.3-3.55,12.98-12.02,6.93-21.2h0Z"/><path class="cls-6" d="m491.02,486.58s2.5,5.84-6.66,10.12c-9.17,4.28-14.26-.34-14.26-.34,4.2,5.19,11.54,6.15,17.32,3.45,5.78-2.7,7.8-8.04,3.6-13.22h0Z"/><path class="cls-9" d="m492.78,509.49s5.63,12.55-15.77,23.43c-21.39,10.88-33.07,1.42-33.07,1.42,9.56,10.85,26.58,11.86,40.06,5s18.33-19,8.77-29.85h.01Z"/><path class="cls-13" d="m491.63,505.3s6.52,12.09-9.75,20.37c-16.27,8.28-27.39-1.47-27.39-1.47,9.56,10.85,23.91,13.22,34.17,8s12.53-16.04,2.97-26.9h0Z"/><path class="cls-12" d="m492.04,526.32s1.7,10.22-17.66,16.44c-19.35,6.22-26.52-2.24-26.52-2.24,5.18,9.31,18.45,11.8,30.64,7.88s18.71-12.77,13.53-22.08Z"/><path class="cls-13" d="m482.98,521.16s12.43,10.97-1.65,25.29c-14.08,14.32-30.49,7.41-30.49,7.41,15.2,8.63,31.87,6.48,40.74-2.55,8.87-9.03,6.58-21.52-8.6-30.15h0Z"/><path class="cls-13" d="m525.31,526.27s-12.72,6.65-28.09-3.84c-15.38-10.49-7.02-20.11-7.02-20.11-10.22,8.66-8.5,19.45,1.19,26.06s23.7,6.55,33.92-2.11Z"/><path class="cls-7" d="m531.4,536.67s-15.15,6.57-33.24-7.35c-18.1-13.91-8.07-24.42-8.07-24.42-12.22,9.18-10.31,22.08,1.09,30.85,11.41,8.77,28,10.1,40.22.92Z"/><path class="cls-4" d="m526.77,509.99s-8.47,6.67-23.02.28c-14.55-6.39-10.2-14.87-10.2-14.87-6.04,7.95-2.18,16.16,7,20.19,9.17,4.03,20.19,2.34,26.23-5.6h-.01Z"/><path class="cls-13" d="m518.64,503.15s-6.44,5.18-17.16.48-7.31-11.22-7.31-11.22c-4.66,6.13-1.94,12.35,4.82,15.31,6.76,2.97,15,1.56,19.65-4.57Z"/><path class="cls-13" d="m518.93,522.48s-7,2.95-16.97-4.23c-9.98-7.18-5.81-12.17-5.81-12.17-5.35,4.29-3.44,10.68,2.84,15.21,6.29,4.53,14.58,5.49,19.93,1.19h.01Z"/><path class="cls-10" d="m514,496.78s-5.24,3.78-14.75-.56c-9.51-4.34-6.96-9.34-6.96-9.34-3.65,4.63-.94,9.73,5.05,12.46s13.01,2.06,16.65-2.56h.01Z"/><path class="cls-13" d="m522.5,555.39s-17.17,2.91-27.48-13.11c-10.32-16.02,3.93-23.46,3.93-23.46-15.68,5.83-19.94,17.76-13.44,27.86,6.5,10.1,21.32,14.54,36.99,8.71Z"/><path class="cls-14" d="m524.59,542.68s-9.77,6.97-24.25-.36c-14.49-7.33-8.82-16.37-8.82-16.37-7.37,8.42-4.36,17.41,4.78,22.03s20.93,3.11,28.31-5.31h-.01Z"/><path class="cls-13" d="m505.24,491.22s-5.37,3.71-10.3.69c-4.94-3.03-.97-7.6-.97-7.6-4.59,4.33-4.85,8.57-1.74,10.47s8.41.76,13.01-3.57h0Z"/><path class="cls-13" d="m491.33,485.39s.93,4.76-4.69,6.14-8.15-2.99-8.15-2.99c1.96,4.61,6.09,6.73,9.64,5.86s5.16-4.4,3.2-9.01Z"/><path class="cls-13" d="m491.6,483.2s1.13,2.22-2.59,4.3-5.92.45-5.92.45c1.83,1.89,4.89,1.97,7.24.66s3.1-3.52,1.27-5.41Z"/><path class="cls-13" d="m493.03,484.07s-1.13,2.22,2.59,4.3,5.92.45,5.92.45c-1.83,1.89-4.89,1.97-7.24.66s-3.1-3.52-1.27-5.41Z"/><rect class="cls-5" x="427.98" y="552.17" width="9.01" height="24.17"/><path class="cls-8" d="m432.5,525.04s.5,5.61-6.42,8.35-9.38-2.09-9.38-2.09c1.76,5.23,6.43,7.02,10.8,5.29,4.37-1.73,6.76-6.32,5.01-11.56h0Z"/><path class="cls-14" d="m432.49,520.45s3.24,9.48-6.98,16.93c-10.22,7.45-16.36.07-16.36.07,5.13,8.34,13.61,9.6,20.05,4.9s8.41-13.56,3.28-21.9Z"/><path class="cls-13" d="m433.19,514.12s1.82,7.73-6.16,12.08c-7.98,4.35-12.05-2.15-12.05-2.15,3.27,7.11,9.45,9.21,14.47,6.47,5.03-2.74,7.02-9.3,3.74-16.4h0Z"/><path class="cls-6" d="m432.95,513.63s1.36,4.52-3.6,7.83-7.71-.27-7.71-.27c2.27,4.01,6.24,4.76,9.36,2.67s4.22-6.22,1.95-10.23Z"/><path class="cls-9" d="m433.9,531.36s3.04,9.71-8.52,18.13-17.88,1.1-17.88,1.1c5.17,8.4,14.36,9.18,21.66,3.87,7.3-5.31,9.91-14.7,4.74-23.09h0Z"/><path class="cls-13" d="m433.27,528.12s3.52,9.35-5.27,15.76c-8.79,6.4-14.81-1.14-14.81-1.14,5.17,8.4,12.93,10.23,18.47,6.19s6.78-12.41,1.61-20.81Z"/><path class="cls-12" d="m433.5,544.38s.91,7.91-9.55,12.72-14.33-1.73-14.33-1.73c2.8,7.21,9.97,9.13,16.56,6.1,6.59-3.03,10.12-9.88,7.32-17.09h0Z"/><path class="cls-13" d="m428.61,540.38s6.72,8.49-.89,19.57c-7.61,11.08-16.48,5.73-16.48,5.73,8.21,6.68,17.22,5.01,22.02-1.97,4.8-6.98,3.56-16.65-4.65-23.32h0Z"/><path class="cls-13" d="m451.48,544.33s-6.88,5.15-15.19-2.97c-8.31-8.12-3.79-15.56-3.79-15.56-5.53,6.7-4.6,15.05.64,20.17s12.81,5.07,18.34-1.63h0Z"/><path class="cls-7" d="m454.77,552.39s-8.19,5.08-17.97-5.68c-9.79-10.77-4.37-18.89-4.37-18.89-6.6,7.11-5.57,17.08.59,23.87,6.16,6.79,15.14,7.81,21.74.71h0Z"/><path class="cls-4" d="m452.28,531.74s-4.58,5.16-12.45.22-5.51-11.5-5.51-11.5c-3.26,6.15-1.17,12.51,3.78,15.62s10.91,1.81,14.17-4.34h0Z"/><path class="cls-13" d="m447.88,526.45s-3.48,4.01-9.27.37-3.95-8.68-3.95-8.68c-2.52,4.74-1.04,9.55,2.6,11.85,3.65,2.3,8.11,1.21,10.62-3.54h.01Z"/><path class="cls-13" d="m448.04,541.41s-3.78,2.28-9.17-3.27c-5.39-5.56-3.14-9.41-3.14-9.41-2.89,3.32-1.87,8.26,1.54,11.77s7.89,4.25,10.78.92h0Z"/><path class="cls-10" d="m445.37,521.52s-2.83,2.92-7.97-.43-3.76-7.22-3.76-7.22c-1.98,3.58-.51,7.53,2.73,9.64s7.03,1.6,9-1.98h0Z"/><path class="cls-13" d="m449.97,566.87s-9.28,2.25-14.86-10.14,2.13-18.15,2.13-18.15c-8.47,4.51-10.78,13.74-7.27,21.55s11.52,11.25,19.99,6.74h0Z"/><path class="cls-14" d="m451.09,557.03s-5.28,5.39-13.11-.28c-7.83-5.67-4.77-12.67-4.77-12.67-3.98,6.51-2.36,13.47,2.58,17.05s11.31,2.41,15.3-4.11h0Z"/><path class="cls-13" d="m440.63,517.22s-2.9,2.87-5.57.53c-2.67-2.34-.52-5.88-.52-5.88-2.48,3.35-2.62,6.63-.93,8.1s4.55.59,7.03-2.76h0Z"/><path class="cls-13" d="m433.11,512.71s.5,3.69-2.53,4.75-4.41-2.32-4.41-2.32c1.05,3.57,3.29,5.21,5.21,4.54s2.79-3.4,1.73-6.97Z"/><path class="cls-13" d="m433.26,511.02s.61,1.72-1.41,3.32-3.2.35-3.2.35c.98,1.46,2.64,1.52,3.91.51s1.68-2.72.69-4.18h0Z"/><path class="cls-13" d="m434.04,511.69s-.61,1.72,1.41,3.32,3.2.35,3.2.35c-.98,1.46-2.64,1.52-3.91.51s-1.68-2.72-.69-4.18Z"/></g><g id="Layer_2"><path class="cls-2" d="m536.17,610.41c-1.03-7.82-1.91-15.75-.27-23.11-25.31-18.54-90.65-16.18-142.91,2.34-16.09,5.7-30.54,12.79-52.2,10.88-29.8-2.63-49.39-20.21-56.12-26.42-6.48-5.99-30.72-28.37-26.1-45.07,1.42-5.15,5.83-10.65,20.88-15.54,29.08-9.45,50.38-1.16,70.47,1.55,3.89.53,59.71,7.21,99.18-29.53,17.51-16.29,46.02-54.36,36.54-90.14-9.06-34.2-48.73-50.95-78.3-48.18-41.8,3.92-68.16,47.28-78.3,37.3-4.07-4.01.57-10.62,1.31-40.41.45-18.47-.62-45.12-1.31-62.17-.68-16.92-1.17-23.03,2.61-27.98,7.66-10.02,24.96-4.86,31.32-3.11,39.36,10.82,114.48,16.08,121.37,0,11.31-26.39-99.25-162.8-123.79-135.21-7.58,8.52-39.61,32.35-51.09,60.61-1.8,4.44-13.98,34.41-37.85,40.41-32.01,8.05-68.5-31.17-66.56-59.06,2.1-30.13,48.39-37.26,48.29-65.28-.07-20.18-24.17-36.88-39.15-43.52-65.77-29.15-136.21,55.55-148.78,71.49-18.65,23.65-21.57,37.58-19.58,48.18,3.89,20.7,26.78,30.21,32.63,32.64,30.34,12.61,49.37-17.96,78.3-6.22,36.12,14.66,61.53,62.17,114.85,77.71,13.12,3.83,1.67,46.71-5.22,110.35-.9,8.35-2.41,20.88-10.44,27.98-8.44,7.46-19.75,5.08-36.54,1.55-11.43-2.4-19.96-4.33-27.41-12.43-6.6-7.19-8.6-15.16-10.44-20.2-9.19-25.18-38.68-43.83-63.95-45.07-26.96-1.32-63.62,16.46-67.86,48.18-3.96,29.56,22.57,53.96,24.8,55.95,15.91,14.23,40.52,21.41,61.34,13.99,10.5-3.74,16.59-9.97,27.41-7.77,8.81,1.79,17.32,8.48,22.19,17.1,10.17,18-1.57,33.77-2.61,69.94-.44,15.35.26,61.92,24.8,90.14,4.27,4.91,1.66.52,30.02,21.76,33.08,24.78,42.75,35.33,49.59,49.73,4.02,8.46,6.65,17.36,7.83,21.76,5.12,18.99,3.9,30.13,5.22,35.56,1.53,6.3,7.95,11,17.52,14.36,14.87.2,29.62,2.01,44.43,3.09h17.38c11.88,0,23.97-1.45,35.84-.81,8.71-.57,17.41-1.08,26.11-1.11,21.98-4,37.56-9.64,37.51-15.53-.1-13.44-81.48-29.11-125.29-69.75-9.6-8.9-19.21-20.7-19.58-35.75-.21-8.61,2.62-18.19,7.83-24.87,14.23-18.22,37.81-4.07,101.79-1.55,34.07,1.34,30.11-2.57,53.51,0,16.81,1.84,30.31,5.12,39.03,3.77-.12-4.17-.19-8.35-.25-12.52h0Z"/><path class="cls-17" d="m235.37,38.72c.34,27.11-.46,38.13-.12,65.24"/><path class="cls-1" d="m234.55,40.28c.08-7.09,15.55-5.09,19.87-1.4,10.04,8.58-19.67,54.55-19.75,46.29-.37-40.41-.32-26.95-.12-44.88h0Z"/></g><g id="Layer_4"><path class="cls-17" d="m293.45,154.92c-.32,25.56.44,35.94.11,61.5"/><path class="cls-3" d="m294.22,156.39c-.08-6.69-14.66-4.8-18.72-1.32-9.46,8.08,18.54,51.42,18.61,43.63.35-38.09.3-25.4.11-42.31h0Z"/><path class="cls-17" d="m330.23,445.54c-.32,25.16.43,35.38.11,60.54"/><path class="cls-1" d="m330.99,446.99c-.07-6.58-14.43-4.72-18.43-1.3-9.32,7.96,18.25,50.62,18.32,42.95.34-37.49.3-25.01.11-41.65h0Z"/><path class="cls-17" d="m221.28,73.8c.26,20.73-.36,29.16-.09,49.89"/><path class="cls-15" d="m220.66,74.99c.06-5.42,11.89-3.89,15.19-1.07,7.68,6.56-15.04,41.71-15.1,35.39-.28-30.9-.25-20.61-.09-34.32Z"/><path class="cls-17" d="m227.89,354.31c-.39,30.52.52,42.92.14,73.44"/><path class="cls-11" d="m228.81,356.07c-.09-7.98-17.5-5.73-22.36-1.58-11.3,9.65,22.14,61.4,22.23,52.1.42-45.48.36-30.34.14-50.52h0Z"/><path class="cls-17" d="m203.49,550.55c.37,25.89-.5,36.41-.13,62.29"/><path class="cls-15" d="m202.61,552.04c.09-6.77,16.75-4.86,21.41-1.34,10.82,8.19-21.19,52.08-21.28,44.19-.4-38.58-.35-25.73-.13-42.85Z"/><path class="cls-17" d="m358.8,659.23c-.16,12.78.22,17.97.06,30.75"/><path class="cls-3" d="m359.18,659.96c-.04-3.34-7.33-2.4-9.36-.66-4.73,4.04,9.27,25.71,9.31,21.81.17-19.04.15-12.7.06-21.15h-.01Z"/><path class="cls-17" d="m396.91,550.22c-.2,16.03.27,22.54.07,38.57"/><path class="cls-1" d="m397.39,551.15c-.05-4.19-9.19-3.01-11.74-.83-5.94,5.07,11.63,32.25,11.67,27.37.22-23.89.19-15.93.07-26.54h0Z"/><path class="cls-17" d="m373.98,667.31c-.17,13.16.23,18.51.06,31.67"/><path class="cls-11" d="m374.37,668.07c-.04-3.44-7.55-2.47-9.64-.68-4.87,4.16,9.55,26.48,9.58,22.46.18-19.61.16-13.08.06-21.78h0Z"/></g></svg>