<?xml version="1.0" encoding="UTF-8"?><svg id="Layer_1" xmlns="http://www.w3.org/2000/svg" width="824" height="174" viewBox="0 0 824 174"><defs><style>.cls-1{fill:#ff9cff;}</style></defs><path class="cls-1" d="m408.33,19.83c-12.67-.76-25.71-2.36-38.39-1.12-1.11.72-2.63,1.19-4.58,1.18-11.9-.03-23.8-.36-35.7-.3-8.22.04-16.45.91-24.66,1.23,7.65,34.63,36.87,60.43,71.77,60.43,35.22,0,64.66-26.27,71.98-61.39-13.47.51-26.95.77-40.42-.04Z"/><path class="cls-1" d="m626.5,128.26c58.82,0,106.5-32,106.5-71.48,0-14.54-6.48-28.05-17.59-39.33-5.22,1.93-10.35,2.18-15.99,1.33-1.96-.29-3.91-.58-5.85-.85-1.23.91-2.89,1.42-4.95,1.24-15.82-1.37-31.74-1.37-47.56,0-.48.04-.94.04-1.37.02-.75.13-1.56.19-2.44.15-1.38-.07-2.7-.45-3.98-.97-15.21,1.67-31.13-.32-46.32-.52-16.54-.22-33.08-.14-49.63-.09-10.93,11.22-17.31,24.62-17.31,39.03,0,39.48,47.68,71.48,106.5,71.48Z"/><path class="cls-1" d="m516.42,17.8c-29.01.03-58.04.43-87,2.02-4.62.25-9.24.48-13.86.64-5.44,8.82-8.56,18.98-8.56,29.81,0,33.68,30,60.98,67,60.98s67-27.3,67-60.98c0-11.34-3.41-21.94-9.33-31.03-3.62.08-7.24.13-10.86.13-1.91,0-3.37-.62-4.39-1.58Z"/><path class="cls-1" d="m785.7,16c-26.5.27-52.93,2.93-79.43,3.4-.61,4.02-.93,8.17-.93,12.41,0,37.25,24.32,67.45,54.33,67.45,30.01,0,54.33-30.2,54.33-67.45,0-5.17-.47-10.2-1.36-15.03-7.98.01-15.95.06-23.93.07-1.19,0-2.2-.32-3.02-.85Z"/><path class="cls-1" d="m314.72,16.26c-35.86.32-71.61,3.51-107.46,4.09-.82,4.83-1.26,9.81-1.26,14.91,0,44.74,32.91,81.01,73.51,81.01s73.51-36.27,73.51-81.01c0-6.21-.64-12.25-1.84-18.06-10.79.02-21.58.08-32.37.08-1.62,0-2.97-.38-4.08-1.02Z"/><path class="cls-1" d="m172.07,16.33c-49.17.32-98.19,3.51-147.34,4.09-1.13,4.83-1.72,9.81-1.72,14.91,0,44.74,45.12,81.01,100.79,81.01s100.79-36.27,100.79-81.01c0-6.21-.87-12.25-2.52-18.06-14.8.02-29.59.08-44.39.08-2.22,0-4.08-.38-5.6-1.02Z"/></svg>