<?xml version="1.0" encoding="UTF-8"?><svg id="Layer_4" xmlns="http://www.w3.org/2000/svg" width="220.11" height="186.62" viewBox="0 0 220.11 186.62"><defs><style>.cls-1{fill:#1d1d1b;}.cls-2,.cls-3{fill:#62c8e8;}.cls-4{fill:#f0e020;}.cls-4,.cls-3,.cls-5{stroke:#1d1d1b;stroke-miterlimit:10;}.cls-5{fill:#74cce8;}</style></defs><path class="cls-3" d="m110.74,14.98c-1.06-.2-1.9-.18-2.77.11-3.57,1.18-4.86,6.86-15.7,14.66-8.31,5.98-4.9,9.32-9.5,14.25-5.77,6.19-9.07,5.51-22.16,13.19-11.78,6.92-17.68,10.37-21.11,16.36-.38.67-2.54,7.13-6.86,20.05-1,2.99-3.69,11.08-3.69,11.08,0,0,5.47,4.84,6.86,10.03,1.74,6.51-3.8,11.43-1.58,14.25,1.67,2.13,4.93-.06,9.13.49.97.13,2,.4,3.06.91,5.69,2.72,10.65,11.18,10.07,16.21-.06.53-.26,1.71.43,2.43,1.14,1.21,3.44-.22,6.41.26,1.44.23,3.14.98,5.2,2.91,10.03,9.35,16.05,6.28,23.74,8.44,6.51,1.83,15.25.69,32.71-1.58,19.63-2.56,29.45-3.83,34.3-7.91,9.35-7.87,12.93-19.89,19.67-19.54,4.06.21,5.13,2.48,5.66,2.13,1.42-.94-2.14-5.33-2.11-12.14.02-3.95,1.22-9.62,4.22-10.55,2.63-.81,5.19,2.46,6.33,1.58,1.24-.96-.9-5.52-2.11-8.44-4.78-11.57-1.89-14.26-5.28-21.63-4.89-10.66-15.79-15.66-18.47-16.88-11.11-5.1-12.74-5.38-18.47-11.08-5.01-4.99-5.15-4.29-10.55-12.66-3.77-5.84-7.01-6.45-12.08-10.6-2.82-2.31-4.7-4.38-5.86-5.76-4.85-5.74-5.68-9.82-9.5-10.55Z"/><polyline class="cls-3" points="42.03 129.58 51.8 143.14 56.49 146.57 56.92 149.01 65.82 145.9 73.91 144.42 80.82 146.99 86.64 154.49 88.61 159.9 95.72 151.73 104.41 148.08 112.4 148.77 119.02 151.63 124.99 159.03 128.1 152.62 138.36 144.92 145.96 143.93 152.38 145.12 159.29 151.12 162.05 143.93 167.28 134.55 176.76 129.58 184.61 133.71"/><path class="cls-2" d="m56.87,148.85c-.31,5.75-2.62,11.19-4.89,16.48"/><path class="cls-1" d="m56.24,148.85c-.34,5.69-2.59,10.99-4.81,16.16-.31.73.76,1.37,1.08.63,2.32-5.38,4.63-10.87,4.98-16.79.05-.8-1.2-.8-1.25,0h0Z"/><path class="cls-2" d="m35.92,129.97c-.09,3.09-1.58,5.96-3.22,8.58s-3.49,5.17-4.43,8.12"/><path class="cls-1" d="m35.3,129.97c-.26,6.3-5.73,10.78-7.63,16.54-.25.77.95,1.09,1.21.33,1.95-5.93,7.4-10.34,7.67-16.87.03-.8-1.22-.8-1.25,0h0Z"/><path class="cls-2" d="m28.71,105.08c.26,3.14-1.4,6.08-3,8.78-1.83,3.1-3.67,6.21-5.5,9.31"/><path class="cls-1" d="m28.09,105.08c.21,3.24-1.5,6.09-3.09,8.78-1.77,3-3.55,6-5.32,9-.41.69.67,1.32,1.08.63,1.89-3.19,3.78-6.38,5.66-9.58,1.58-2.7,3.13-5.6,2.92-8.83-.05-.8-1.3-.8-1.25,0h0Z"/><path class="cls-2" d="m19.42,101.59c4.39-1.1,8.55-3.1,12.14-5.85"/><path class="cls-1" d="m19.58,102.19c4.44-1.13,8.64-3.14,12.29-5.91.63-.48.01-1.57-.63-1.08-3.57,2.71-7.64,4.68-11.99,5.79-.78.2-.45,1.4.33,1.21h0Z"/><path class="cls-2" d="m27.88,83.56c2.98-.37,5.93-.95,8.83-1.73"/><path class="cls-1" d="m27.88,84.18c3.04-.38,6.04-.96,9-1.75.78-.21.45-1.41-.33-1.21-2.85.76-5.74,1.34-8.67,1.71-.34.04-.62.26-.62.62,0,.31.29.67.62.62h0Z"/><path class="cls-2" d="m86.44,179.47c1.78-6.26,2.54-12.81,2.27-19.31"/><path class="cls-1" d="m87.04,179.64c1.77-6.33,2.55-12.91,2.29-19.48-.03-.8-1.28-.81-1.25,0,.26,6.47-.5,12.91-2.25,19.14-.22.78.99,1.11,1.21.33h0Z"/><path class="cls-2" d="m125.09,159.63c.99,5,1.48,10.1,1.47,15.2,0,1.6-.08,3.28-.87,4.66"/><path class="cls-1" d="m124.49,159.8c.65,3.32,1.09,6.68,1.3,10.07.1,1.65.16,3.31.15,4.97,0,1.5-.07,3-.79,4.35-.38.71.7,1.34,1.08.63,1.5-2.8,1.01-6.51.83-9.57-.21-3.62-.67-7.22-1.37-10.78-.15-.79-1.36-.45-1.21.33h0Z"/><path class="cls-2" d="m165.77,168.51c-.82-6.22-2.66-12.3-5.42-17.92"/><path class="cls-1" d="m166.4,168.51c-.85-6.34-2.7-12.48-5.51-18.24-.35-.72-1.43-.09-1.08.63,2.7,5.54,4.52,11.49,5.34,17.61.11.79,1.36.8,1.25,0h0Z"/><path class="cls-2" d="m194.29,150.25c-1.67-4.99-3.84-9.82-6.45-14.39-.67-1.16-1.4-2.35-2.53-3.06"/><path class="cls-1" d="m194.89,150.08c-1.13-3.36-2.47-6.65-4.03-9.84-.78-1.59-1.61-3.16-2.49-4.7-.73-1.27-1.53-2.46-2.76-3.29-.67-.45-1.3.63-.63,1.08,1.22.82,1.92,2.15,2.63,3.4.82,1.45,1.59,2.93,2.31,4.43,1.45,3,2.7,6.09,3.76,9.25.26.76,1.46.43,1.21-.33h0Z"/><path class="cls-2" d="m193.62,112.67c2.33,3.39,4.68,6.8,7.62,9.67.7.68,1.44,1.34,2.01,2.13.65.91,1.09,2.01,1.97,2.71"/><path class="cls-1" d="m193.08,112.98c1.84,2.67,3.69,5.35,5.83,7.79,1.04,1.18,2.22,2.22,3.28,3.38.98,1.07,1.48,2.51,2.59,3.47.61.52,1.49-.36.88-.88-1.04-.9-1.53-2.26-2.42-3.29-1.02-1.18-2.23-2.19-3.27-3.36-2.15-2.41-3.98-5.08-5.81-7.74-.45-.66-1.54-.03-1.08.63h0Z"/><path class="cls-2" d="m189.33,96.25c2.09.49,3.84,1.89,5.47,3.29,2.95,2.51,5.8,5.13,8.55,7.86"/><path class="cls-1" d="m189.16,96.85c2.78.71,4.94,2.88,7.03,4.72,2.3,2.02,4.53,4.11,6.71,6.27.57.57,1.46-.32.88-.88-2.3-2.28-4.67-4.49-7.11-6.62-2.14-1.87-4.35-3.96-7.18-4.68-.78-.2-1.11,1.01-.33,1.21h0Z"/><path class="cls-2" d="m186.82,83.34l9.65,4.31"/><path class="cls-1" d="m186.51,83.88c3.22,1.44,6.44,2.87,9.65,4.31.73.33,1.36-.75.63-1.08-3.22-1.44-6.44-2.87-9.65-4.31-.73-.33-1.36.75-.63,1.08h0Z"/><path class="cls-5" d="m43.03,130.18c-.5.68,2.73,2.85,6.25,8.4.79,1.25,1.43,2.4,2.78,4.1,1.03,1.3,3.37,3.08,4.19,2.66.72-.37.03-2.1-.72-3.98-.78-1.98-1.78-3.27-3.03-4.86-1.5-1.92-2.7-3.44-4.8-4.73-1.63-1-4.25-2.15-4.67-1.58Z"/><polygon class="cls-4" points="51.98 133.73 45.57 129.58 48.86 110.83 56.87 94.63 66.32 80.06 76.74 66.64 87.6 53.92 92.93 41.65 105.42 23.61 96.63 40.03 92.01 52.99 91.08 59.47 84.83 66.41 72.11 82.69 60.08 105.08 51.98 133.73"/><polygon class="cls-4" points="80.82 146.99 73.91 144.42 74.19 119.92 77.66 101.82 84.6 85.3 91.53 72.22 96.78 57.07 99.9 44.07 107.26 23.69 103.25 42.17 100.53 56.8 99.26 62.78 96.3 71.96 88.8 90.36 81.72 115.64 80.82 146.99"/><polygon class="cls-4" points="133.13 148.21 142.64 143.63 139.43 118.93 133.19 100.19 126.57 82.69 124.15 72.22 119.98 56.46 115.28 41.13 112.36 23.69 113.32 40.03 115.16 56.8 116.76 61.32 119.38 71.96 123.24 89.78 129.02 115.92 133.13 148.21"/><polygon class="cls-4" points="163.48 139.61 170.35 132.45 161.87 107.4 151.93 85.67 141.24 70.41 134.81 62.24 130.41 55.54 125.09 40.73 114.68 23.69 123.24 42.81 126.57 59.7 136.89 75.89 144.12 89.08 150.77 102.58 153.78 110.83 163.48 139.61"/><polygon class="cls-4" points="182.44 119.05 186.07 110.67 174.57 85.67 162.11 75.16 151.2 61.74 144.12 55.31 139.1 50.07 135.96 41.84 117.1 22.98 130.42 40.34 137.45 55.31 149.58 68.63 158.86 79.4 167.24 89.13 172.82 95.74 182.44 119.05"/><polygon class="cls-4" points="100.71 149.04 113.71 148.57 113.32 117.17 112.36 96.25 112.3 81.83 112.36 72.22 111.19 56.49 110.64 42.36 109.95 24.88 108.56 36.1 108.05 42.55 107.26 51.33 103.89 65.34 102.42 87.65 100.46 114.13 100.71 149.04"/><polygon class="cls-4" points="34.8 112.13 30.9 107.04 37.93 88.19 48.09 76.03 56.09 67.91 68.16 57.44 83.8 42.76 90.59 31.07 103.47 23.69 92.91 36.39 88.73 41.77 82.15 51.93 70.4 60.69 56.87 75.03 42.03 92.3 34.8 112.13"/></svg>