<?xml version="1.0" encoding="UTF-8"?><svg id="Layer_4" xmlns="http://www.w3.org/2000/svg" width="220.11" height="186.62" viewBox="0 0 220.11 186.62"><defs><style>.cls-1{fill:#1d1d1b;}.cls-2{stroke-width:.25px;}.cls-2,.cls-3{fill:#8c3687;}.cls-2,.cls-3,.cls-4,.cls-5{stroke:#1d1d1b;stroke-miterlimit:10;}.cls-4{fill:#f0e020;}.cls-5{fill:none;}</style></defs><path class="cls-3" d="m110.99,15.54c-1.06-.2-1.9-.18-2.77.11-3.57,1.18-4.86,6.86-15.7,14.66-8.31,5.98-4.9,9.32-9.5,14.25-5.77,6.19-9.07,5.51-22.16,13.19-11.78,6.92-17.68,10.37-21.11,16.36-.38.67-2.54,7.13-6.86,20.05-1,2.99-3.69,11.08-3.69,11.08,0,0,5.47,4.84,6.86,10.03,1.74,6.51-3.8,11.43-1.58,14.25,1.67,2.13,4.93-.06,9.13.49.97.13,2,.4,3.06.91,5.69,2.72,10.65,11.18,10.07,16.21-.06.53-.26,1.71.43,2.43,1.14,1.21,3.44-.22,6.41.26,1.44.23,3.14.98,5.2,2.91,10.03,9.35,16.05,6.28,23.74,8.44,6.51,1.83,15.25.69,32.71-1.58,19.63-2.56,29.45-3.83,34.3-7.91,9.35-7.87,12.93-19.89,19.67-19.54,4.06.21,5.13,2.48,5.66,2.13,1.42-.94-2.14-5.33-2.11-12.14.02-3.95,1.22-9.62,4.22-10.55,2.63-.81,5.19,2.46,6.33,1.58,1.24-.96-.9-5.52-2.11-8.44-4.78-11.57-1.89-14.26-5.28-21.63-4.89-10.66-15.79-15.66-18.47-16.88-11.11-5.1-12.74-5.38-18.47-11.08-5.01-4.99-5.15-4.29-10.55-12.66-3.77-5.84-7.01-6.45-12.08-10.6-2.82-2.31-4.7-4.38-5.86-5.76-4.85-5.74-5.68-9.82-9.5-10.55Z"/><polyline class="cls-5" points="42.27 130.13 52.05 143.7 56.74 147.13 57.17 149.56 66.07 146.46 74.16 144.98 81.07 147.55 86.89 155.05 88.86 160.46 95.97 152.28 104.66 148.63 112.65 149.32 119.27 152.18 125.24 159.59 128.35 153.17 138.61 145.47 146.21 144.49 152.63 145.67 159.54 151.67 162.3 144.49 167.53 135.11 177.01 130.13 184.86 134.26"/><path class="cls-1" d="m56.49,149.41c-.34,5.69-2.59,10.99-4.81,16.16-.31.73.76,1.37,1.08.63,2.32-5.38,4.63-10.87,4.98-16.79.05-.8-1.2-.8-1.25,0h0Z"/><path class="cls-1" d="m35.55,130.52c-.26,6.3-5.73,10.78-7.63,16.54-.25.77.95,1.09,1.21.33,1.95-5.93,7.4-10.34,7.67-16.87.03-.8-1.22-.8-1.25,0h0Z"/><path class="cls-1" d="m28.33,105.63c.21,3.24-1.5,6.09-3.09,8.78-1.77,3-3.55,6-5.32,9-.41.69.67,1.32,1.08.63,1.89-3.19,3.78-6.38,5.66-9.58,1.58-2.7,3.13-5.6,2.92-8.83-.05-.8-1.3-.8-1.25,0h0Z"/><path class="cls-1" d="m19.83,102.75c4.44-1.13,8.64-3.14,12.29-5.91.63-.48.01-1.57-.63-1.08-3.57,2.71-7.64,4.68-11.99,5.79-.78.2-.45,1.4.33,1.21h0Z"/><path class="cls-1" d="m28.13,84.74c3.04-.38,6.04-.96,9-1.75.78-.21.45-1.41-.33-1.21-2.85.76-5.74,1.34-8.67,1.71-.34.04-.62.26-.62.62,0,.31.29.67.62.62h0Z"/><path class="cls-1" d="m87.29,180.19c1.77-6.33,2.55-12.91,2.29-19.48-.03-.8-1.28-.81-1.25,0,.26,6.47-.5,12.91-2.25,19.14-.22.78.99,1.11,1.21.33h0Z"/><path class="cls-1" d="m124.74,160.35c.65,3.32,1.09,6.68,1.3,10.07.1,1.65.16,3.31.15,4.97,0,1.5-.07,3-.79,4.35-.38.71.7,1.34,1.08.63,1.5-2.8,1.01-6.51.83-9.57-.21-3.62-.67-7.22-1.37-10.78-.15-.79-1.36-.45-1.21.33h0Z"/><path class="cls-1" d="m166.65,169.07c-.85-6.34-2.7-12.48-5.51-18.24-.35-.72-1.43-.09-1.08.63,2.7,5.54,4.52,11.49,5.34,17.61.11.79,1.36.8,1.25,0h0Z"/><path class="cls-1" d="m195.14,150.64c-1.13-3.36-2.47-6.65-4.03-9.84-.78-1.59-1.61-3.16-2.49-4.7-.73-1.27-1.53-2.46-2.76-3.29-.67-.45-1.3.63-.63,1.08,1.22.82,1.92,2.15,2.63,3.4.82,1.45,1.59,2.93,2.31,4.43,1.45,3,2.7,6.09,3.76,9.25.26.76,1.46.43,1.21-.33h0Z"/><path class="cls-1" d="m193.33,113.54c1.84,2.67,3.69,5.35,5.83,7.79,1.04,1.18,2.22,2.22,3.28,3.38.98,1.07,1.48,2.51,2.59,3.47.61.52,1.49-.36.88-.88-1.04-.9-1.53-2.26-2.42-3.29-1.02-1.18-2.23-2.19-3.27-3.36-2.15-2.41-3.98-5.08-5.81-7.74-.45-.66-1.54-.03-1.08.63h0Z"/><path class="cls-1" d="m189.41,97.41c2.78.71,4.94,2.88,7.03,4.72,2.3,2.02,4.53,4.11,6.71,6.27.57.57,1.46-.32.88-.88-2.3-2.28-4.67-4.49-7.11-6.62-2.14-1.87-4.35-3.96-7.18-4.68-.78-.2-1.11,1.01-.33,1.21h0Z"/><path class="cls-1" d="m186.76,84.43c3.22,1.44,6.44,2.87,9.65,4.31.73.33,1.36-.75.63-1.08-3.22-1.44-6.44-2.87-9.65-4.31-.73-.33-1.36.75-.63,1.08h0Z"/><path class="cls-2" d="m43.28,130.73c-.5.68,2.73,2.85,6.25,8.4.79,1.25,1.43,2.4,2.78,4.1,1.03,1.3,3.37,3.08,4.19,2.66.72-.37.03-2.1-.72-3.98-.78-1.98-1.78-3.27-3.03-4.86-1.5-1.92-2.7-3.44-4.8-4.73-1.63-1-4.25-2.15-4.67-1.58Z"/><polygon class="cls-4" points="52.22 134.29 45.82 130.13 49.1 111.38 57.12 95.19 66.57 80.61 76.98 67.2 87.85 54.47 93.18 42.21 105.67 24.16 96.88 40.59 92.25 53.55 91.33 60.02 85.08 66.96 72.36 83.25 60.33 105.63 52.22 134.29"/><polygon class="cls-4" points="81.07 147.55 74.16 144.98 74.44 120.48 77.91 102.38 84.85 85.85 91.78 72.78 97.03 57.63 100.15 44.63 107.51 24.24 103.5 42.72 100.77 57.36 99.51 63.33 96.55 72.51 89.05 90.91 81.97 116.2 81.07 147.55"/><polygon class="cls-4" points="133.38 148.77 142.88 144.19 139.68 119.48 133.43 100.74 126.82 83.25 124.4 72.78 120.23 57.02 115.53 41.68 112.61 24.24 113.57 40.59 115.41 57.36 117.01 61.87 119.63 72.51 123.49 90.33 129.27 116.47 133.38 148.77"/><polygon class="cls-4" points="163.73 140.17 170.6 133 162.12 107.95 152.17 86.23 141.49 70.97 135.05 62.8 130.66 56.09 125.34 41.28 114.93 24.24 123.49 43.37 126.82 60.25 137.14 76.45 144.37 89.64 151.02 103.13 154.02 111.38 163.73 140.17"/><polygon class="cls-4" points="182.69 119.6 186.32 111.23 174.82 86.23 162.36 75.71 151.45 62.3 144.37 55.86 139.35 50.62 136.21 42.39 117.35 23.53 130.67 40.89 137.7 55.86 149.83 69.18 159.11 79.96 167.49 89.69 173.07 96.29 182.69 119.6"/><polygon class="cls-4" points="100.96 149.6 113.96 149.12 113.57 117.73 112.61 96.81 112.55 82.38 112.61 72.77 111.44 57.05 110.88 42.91 110.2 25.44 108.81 36.66 108.3 43.11 107.51 51.89 104.14 65.89 102.67 88.2 100.7 114.68 100.96 149.6"/><polygon class="cls-4" points="35.05 112.68 31.15 107.59 38.18 88.74 48.34 76.58 56.33 68.46 68.41 58 84.05 43.32 90.84 31.63 103.71 24.24 93.16 36.94 88.98 42.32 82.4 52.48 70.65 61.25 57.12 75.59 42.27 92.85 35.05 112.68"/></svg>